<svg width="32" height="31" viewBox="0 0 32 31" fill="none" xmlns="http://www.w3.org/2000/svg">
<path d="M8.71 1.04005C8.96355 0.970837 9.23714 0.995293 9.47074 1.10805C9.70434 1.2208 9.87886 1.41264 9.956 1.64146L10.538 3.36805C12.1618 2.40983 14.0602 1.90075 16 1.90334C18.014 1.90334 19.892 2.44154 21.462 3.36805L22.042 1.64146C22.0794 1.52721 22.1414 1.42076 22.2245 1.32824C22.3076 1.23573 22.4102 1.15898 22.5263 1.10242C22.6424 1.04586 22.7697 1.0106 22.901 0.998675C23.0322 0.986752 23.1648 0.9984 23.2911 1.03295C23.4173 1.0675 23.5348 1.12426 23.6366 1.19998C23.7385 1.27569 23.8227 1.36885 23.8845 1.4741C23.9463 1.57935 23.9845 1.6946 23.9967 1.81321C24.009 1.93182 23.9952 2.05146 23.956 2.16522L23.136 4.607C24.9745 6.29394 26.0033 8.56677 26 10.9336H27C27.2652 10.9336 27.5196 10.8385 27.7071 10.6691C27.8946 10.4998 28 10.2701 28 10.0306V9.12755C28 8.88806 28.1054 8.65837 28.2929 8.48902C28.4804 8.31967 28.7348 8.22453 29 8.22453C29.2652 8.22453 29.5196 8.31967 29.7071 8.48902C29.8946 8.65837 30 8.88806 30 9.12755V10.0306C30 10.7491 29.6839 11.4381 29.1213 11.9462C28.5587 12.4542 27.7956 12.7397 27 12.7397H26V14.5457H29C29.2652 14.5457 29.5196 14.6409 29.7071 14.8102C29.8946 14.9796 30 15.2092 30 15.4487C30 15.6882 29.8946 15.9179 29.7071 16.0873C29.5196 16.2566 29.2652 16.3518 29 16.3518H26V18.1578H27C27.7956 18.1578 28.5587 18.4432 29.1213 18.9513C29.6839 19.4593 30 20.1484 30 20.8669V21.7699C30 22.0094 29.8946 22.2391 29.7071 22.4085C29.5196 22.5778 29.2652 22.673 29 22.673C28.7348 22.673 28.4804 22.5778 28.2929 22.4085C28.1054 22.2391 28 22.0094 28 21.7699V20.8669C28 20.6274 27.8946 20.3977 27.7071 20.2284C27.5196 20.059 27.2652 19.9639 27 19.9639H26C26 22.3588 24.9464 24.6557 23.0711 26.3492C21.1957 28.0427 18.6522 28.9941 16 28.9941C13.3478 28.9941 10.8043 28.0427 8.92893 26.3492C7.05357 24.6557 6 22.3588 6 19.9639H5C4.73478 19.9639 4.48043 20.059 4.29289 20.2284C4.10536 20.3977 4 20.6274 4 20.8669V21.7699C4 22.0094 3.89464 22.2391 3.70711 22.4085C3.51957 22.5778 3.26522 22.673 3 22.673C2.73478 22.673 2.48043 22.5778 2.29289 22.4085C2.10536 22.2391 2 22.0094 2 21.7699V20.8669C2 20.1484 2.31607 19.4593 2.87868 18.9513C3.44129 18.4432 4.20435 18.1578 5 18.1578H6V16.3518H3C2.73478 16.3518 2.48043 16.2566 2.29289 16.0873C2.10536 15.9179 2 15.6882 2 15.4487C2 15.2092 2.10536 14.9796 2.29289 14.8102C2.48043 14.6409 2.73478 14.5457 3 14.5457H6V12.7397H5C4.20435 12.7397 3.44129 12.4542 2.87868 11.9462C2.31607 11.4381 2 10.7491 2 10.0306V9.12755C2 8.88806 2.10536 8.65837 2.29289 8.48902C2.48043 8.31967 2.73478 8.22453 3 8.22453C3.26522 8.22453 3.51957 8.31967 3.70711 8.48902C3.89464 8.65837 4 8.88806 4 9.12755V10.0306C4 10.2701 4.10536 10.4998 4.29289 10.6691C4.48043 10.8385 4.73478 10.9336 5 10.9336H6C6 8.47015 7.094 6.23606 8.864 4.607L8.044 2.16522C7.96736 1.93626 7.99444 1.68919 8.1193 1.47825C8.24417 1.2673 8.4566 1.1097 8.71 1.04005ZM8 12.7397V19.9639C7.99933 21.7239 8.71019 23.4236 9.99909 24.7438C11.288 26.064 13.0663 26.9139 15 27.1339V12.7397H8ZM17 12.7397V27.1339C18.9337 26.9139 20.712 26.064 22.0009 24.7438C23.2898 23.4236 24.0007 21.7239 24 19.9639V12.7397H17ZM24 10.9336C24.0014 9.91672 23.7644 8.91108 23.3045 7.98284C22.8447 7.0546 22.1724 6.22478 21.332 5.54795C19.8671 4.36143 17.9678 3.70651 16 3.70939C14.0315 3.70606 12.1314 4.36101 10.666 5.54795C9.82593 6.22494 9.15406 7.05483 8.69457 7.98307C8.23508 8.9113 7.99836 9.91685 8 10.9336H24Z" fill="#FFA31A"/>
</svg>
