<svg width="32" height="32" viewBox="0 0 32 32" fill="none" xmlns="http://www.w3.org/2000/svg">
<g clip-path="url(#clip0_627_15)">
<circle cx="16" cy="16" r="16" fill="#212529"/>
<path d="M9.75143 4.03935C9.96875 3.98003 10.2033 4.00099 10.4035 4.09763C10.6037 4.19428 10.7533 4.35871 10.8194 4.55485L11.3183 6.03478C12.7101 5.21345 14.3373 4.7771 16 4.77931C17.7263 4.77931 19.336 5.24063 20.6817 6.03478L21.1789 4.55485C21.2109 4.45691 21.264 4.36567 21.3353 4.28637C21.4065 4.20708 21.4944 4.14129 21.5939 4.09281C21.6935 4.04433 21.8026 4.01411 21.9151 4.00389C22.0276 3.99367 22.1413 4.00365 22.2495 4.03326C22.3577 4.06288 22.4584 4.11153 22.5457 4.17643C22.633 4.24133 22.7052 4.32118 22.7582 4.41139C22.8111 4.5016 22.8438 4.60039 22.8543 4.70206C22.8649 4.80373 22.853 4.90627 22.8194 5.00378L22.1166 7.09674C23.6924 8.54268 24.5743 10.4908 24.5714 12.5195H25.4286C25.6559 12.5195 25.8739 12.438 26.0347 12.2928C26.1954 12.1477 26.2857 11.9508 26.2857 11.7455V10.9715C26.2857 10.7662 26.376 10.5693 26.5368 10.4242C26.6975 10.279 26.9155 10.1975 27.1429 10.1975C27.3702 10.1975 27.5882 10.279 27.7489 10.4242C27.9097 10.5693 28 10.7662 28 10.9715V11.7455C28 12.3614 27.7291 12.952 27.2468 13.3875C26.7646 13.8229 26.1106 14.0676 25.4286 14.0676H24.5714V15.6156H27.1429C27.3702 15.6156 27.5882 15.6972 27.7489 15.8423C27.9097 15.9875 28 16.1844 28 16.3897C28 16.5949 27.9097 16.7918 27.7489 16.937C27.5882 17.0821 27.3702 17.1637 27.1429 17.1637H24.5714V18.7117H25.4286C26.1106 18.7117 26.7646 18.9564 27.2468 19.3918C27.7291 19.8273 28 20.4179 28 21.0338V21.8078C28 22.0131 27.9097 22.21 27.7489 22.3551C27.5882 22.5003 27.3702 22.5818 27.1429 22.5818C26.9155 22.5818 26.6975 22.5003 26.5368 22.3551C26.376 22.21 26.2857 22.0131 26.2857 21.8078V21.0338C26.2857 20.8285 26.1954 20.6316 26.0347 20.4865C25.8739 20.3413 25.6559 20.2598 25.4286 20.2598H24.5714C24.5714 22.3126 23.6684 24.2814 22.0609 25.7329C20.4535 27.1845 18.2733 28 16 28C13.7267 28 11.5465 27.1845 9.93908 25.7329C8.33163 24.2814 7.42857 22.3126 7.42857 20.2598H6.57143C6.3441 20.2598 6.12608 20.3413 5.96534 20.4865C5.80459 20.6316 5.71429 20.8285 5.71429 21.0338V21.8078C5.71429 22.0131 5.62398 22.21 5.46323 22.3551C5.30249 22.5003 5.08447 22.5818 4.85714 22.5818C4.62981 22.5818 4.4118 22.5003 4.25105 22.3551C4.09031 22.21 4 22.0131 4 21.8078V21.0338C4 20.4179 4.27092 19.8273 4.75315 19.3918C5.23539 18.9564 5.88944 18.7117 6.57143 18.7117H7.42857V17.1637H4.85714C4.62981 17.1637 4.4118 17.0821 4.25105 16.937C4.09031 16.7918 4 16.5949 4 16.3897C4 16.1844 4.09031 15.9875 4.25105 15.8423C4.4118 15.6972 4.62981 15.6156 4.85714 15.6156H7.42857V14.0676H6.57143C5.88944 14.0676 5.23539 13.8229 4.75315 13.3875C4.27092 12.952 4 12.3614 4 11.7455V10.9715C4 10.7662 4.09031 10.5693 4.25105 10.4242C4.4118 10.279 4.62981 10.1975 4.85714 10.1975C5.08447 10.1975 5.30249 10.279 5.46323 10.4242C5.62398 10.5693 5.71429 10.7662 5.71429 10.9715V11.7455C5.71429 11.9508 5.80459 12.1477 5.96534 12.2928C6.12608 12.438 6.3441 12.5195 6.57143 12.5195H7.42857C7.42857 10.408 8.36629 8.49308 9.88343 7.09674L9.18057 5.00378C9.11488 4.80753 9.13809 4.59576 9.24512 4.41495C9.35214 4.23414 9.53423 4.09905 9.75143 4.03935ZM9.14286 14.0676V20.2598C9.14228 21.7684 9.75159 23.2252 10.8564 24.3568C11.9611 25.4885 13.4854 26.2169 15.1429 26.4055V14.0676H9.14286ZM16.8571 14.0676V26.4055C18.5146 26.2169 20.0389 25.4885 21.1436 24.3568C22.2484 23.2252 22.8577 21.7684 22.8571 20.2598V14.0676H16.8571ZM22.8571 12.5195C22.8583 11.6479 22.6552 10.7859 22.261 9.99031C21.8669 9.19468 21.2907 8.4834 20.5703 7.90327C19.3147 6.88625 17.6867 6.32488 16 6.32736C14.3127 6.3245 12.684 6.88589 11.428 7.90327C10.7079 8.48354 10.1321 9.19488 9.7382 9.99051C9.34435 10.7861 9.14146 11.648 9.14286 12.5195H22.8571Z" fill="#FFA31A"/>
</g>
<defs>
<clipPath id="clip0_627_15">
<rect width="32" height="32" fill="white"/>
</clipPath>
</defs>
</svg>
